# Blender 3.2.0
# www.blender.org
mtllib pedestal.mtl
o Padestal
v -1.000000 0.000000 1.000000
v -1.000000 0.000000 -1.000000
v 1.000000 0.000000 1.000000
v 1.000000 0.000000 -1.000000
v -0.947731 0.525000 -0.947731
v 0.947731 0.525000 -0.947731
v 0.947731 0.525000 0.947731
v -0.947731 0.525000 0.947731
v -1.000000 0.525000 1.000000
v -1.000000 0.525000 -1.000000
v 1.000000 0.525000 -1.000000
v 1.000000 0.525000 1.000000
v -0.946271 0.582792 0.946271
v -0.946271 0.582792 -0.946271
v 0.946271 0.582792 -0.946271
v 0.946271 0.582792 0.946271
v -0.864379 0.626791 0.864379
v -0.864379 0.626791 -0.864379
v 0.864379 0.626791 -0.864379
v 0.864379 0.626791 0.864379
v -0.777672 0.738683 0.777672
v -0.777672 0.738683 -0.777672
v 0.777672 0.738683 -0.777672
v 0.777672 0.738683 0.777672
v -0.777672 4.276983 0.777672
v -0.777672 4.276983 -0.777672
v 0.777672 4.276983 -0.777672
v 0.777672 4.276983 0.777672
v -0.880432 4.361161 0.880432
v -0.880432 4.361161 -0.880432
v 0.880432 4.361161 -0.880432
v 0.880432 4.361161 0.880432
v -0.880432 4.412963 0.880432
v -0.880432 4.412963 -0.880432
v 0.880432 4.412963 -0.880432
v 0.880432 4.412963 0.880432
v -0.949569 4.412963 0.949569
v -0.949569 4.412963 -0.949569
v 0.949569 4.412963 -0.949569
v 0.949569 4.412963 0.949569
v -0.717924 4.523043 0.717924
v -0.717924 4.523043 -0.717924
v 0.717924 4.523043 -0.717924
v 0.717924 4.523043 0.717924
v -0.949569 4.523043 0.949569
v -0.949569 4.523043 -0.949569
v 0.949569 4.523043 -0.949569
v 0.949569 4.523043 0.949569
v -0.717924 4.728179 0.717924
v -0.717924 4.728179 -0.717924
v 0.717924 4.728179 -0.717924
v 0.717924 4.728179 0.717924
vn -0.0000 -1.0000 -0.0000
vn -1.0000 -0.0000 -0.0000
vn -0.0000 -0.0000 -1.0000
vn 1.0000 -0.0000 -0.0000
vn -0.0000 -0.0000 1.0000
vn 0.9997 0.0253 -0.0000
vn -0.0000 1.0000 -0.0000
vn -0.0000 0.8809 0.4733
vn -0.9997 0.0253 -0.0000
vn -0.0000 0.0253 0.9997
vn -0.0000 0.0253 -0.9997
vn 0.7904 0.6125 -0.0000
vn -0.0000 0.8809 -0.4733
vn 0.4733 0.8809 -0.0000
vn -0.4733 0.8809 -0.0000
vn -0.7904 0.6125 -0.0000
vn -0.0000 0.6125 0.7904
vn -0.0000 0.6125 -0.7904
vn -0.0000 -0.7736 0.6337
vn -0.0000 -0.7736 -0.6337
vn 0.6337 -0.7736 -0.0000
vn -0.6337 -0.7736 -0.0000
vt 0.716403 0.997766
vt 0.998112 0.998011
vt 0.435432 0.002460
vt 0.723961 0.998011
vt 0.276530 0.002379
vt 0.716403 0.723615
vt 0.709582 0.002460
vt 0.998112 0.723860
vt 0.998554 0.716951
vt 0.724403 0.716951
vt 0.723961 0.723860
vt 0.002379 0.002379
vt 0.637274 0.730780
vt 0.269365 0.081508
vt 0.731568 0.637822
vt 0.009544 0.081508
vt 0.991389 0.637822
vt 0.702417 0.081590
vt 0.442596 0.081590
vt 0.637274 0.990601
vt 0.644439 0.997766
vt 0.435431 0.074425
vt 0.644439 0.723615
vt 0.276530 0.074343
vt 0.002379 0.074343
vt 0.724403 0.644987
vt 0.998554 0.644987
vt 0.709582 0.074425
vt 0.442796 0.089514
vt 0.629350 0.990401
vt 0.629350 0.730980
vt 0.269165 0.089433
vt 0.009744 0.089433
vt 0.731768 0.629897
vt 0.991189 0.629897
vt 0.702217 0.089514
vt 0.454022 0.102257
vt 0.616607 0.979176
vt 0.616607 0.742206
vt 0.257940 0.102176
vt 0.020970 0.102176
vt 0.742993 0.617155
vt 0.979963 0.617154
vt 0.690992 0.102257
vt 0.465907 0.121661
vt 0.597203 0.967290
vt 0.597203 0.754091
vt 0.246054 0.121579
vt 0.754879 0.597751
vt 0.032856 0.121579
vt 0.968078 0.597750
vt 0.679107 0.121661
vt 0.465908 0.606674
vt 0.112190 0.967291
vt 0.112190 0.754092
vt 0.246054 0.606592
vt 0.032856 0.606592
vt 0.754878 0.112738
vt 0.968077 0.112737
vt 0.679107 0.606674
vt 0.451822 0.624883
vt 0.093981 0.981377
vt 0.260140 0.624801
vt 0.093981 0.740006
vt 0.018770 0.624801
vt 0.740792 0.094529
vt 0.982163 0.094529
vt 0.693193 0.624883
vt 0.451822 0.631983
vt 0.086880 0.981377
vt 0.086880 0.740006
vt 0.260140 0.631902
vt 0.018770 0.631902
vt 0.740792 0.087429
vt 0.982163 0.087428
vt 0.693193 0.631983
vt 0.442345 0.641461
vt 0.077403 0.990854
vt 0.077403 0.730529
vt 0.269617 0.641379
vt 0.009293 0.641379
vt 0.731315 0.077951
vt 0.991640 0.077951
vt 0.702670 0.641460
vt 0.474098 0.688303
vt 0.030561 0.959101
vt 0.030561 0.762282
vt 0.237864 0.688221
vt 0.763068 0.031109
vt 0.041046 0.688221
vt 0.959887 0.031109
vt 0.670917 0.688303
vt 0.062314 0.990854
vt 0.442345 0.656550
vt 0.062314 0.730529
vt 0.269617 0.656468
vt 0.009293 0.656468
vt 0.731315 0.062862
vt 0.991640 0.062862
vt 0.702670 0.656550
vt 0.454996 0.248948
vt 0.002442 0.959101
vt 0.474098 0.716422
vt 0.258177 0.248948
vt 0.002442 0.762282
vt 0.237864 0.716340
vt 0.763068 0.002990
vt 0.258177 0.445767
vt 0.041046 0.716340
vt 0.959887 0.002990
vt 0.454996 0.445767
vt 0.670917 0.716422
s 0
usemtl Material
f 4/11/1 1/2/1 2/4/1
f 9/21/2 2/6/2 1/1/2
f 10/24/3 4/12/3 2/5/3
f 11/26/4 3/9/4 4/10/4
f 12/28/5 1/3/5 3/7/5
f 6/15/6 16/35/6 7/17/6
f 5/13/7 9/21/7 8/20/7
f 6/16/7 10/24/7 5/14/7
f 7/17/7 11/26/7 6/15/7
f 8/19/7 12/28/7 7/18/7
f 16/36/8 17/37/8 13/29/8
f 8/20/9 14/31/9 5/13/9
f 7/18/10 13/29/10 8/19/10
f 5/14/11 15/33/11 6/16/11
f 19/42/12 24/51/12 20/43/12
f 14/32/13 19/41/13 15/33/13
f 15/34/14 20/43/14 16/35/14
f 13/30/15 18/39/15 14/31/15
f 23/49/4 28/59/4 24/51/4
f 17/38/16 22/47/16 18/39/16
f 20/44/17 21/45/17 17/37/17
f 18/40/18 23/50/18 19/41/18
f 28/60/19 29/61/19 25/53/19
f 21/46/2 26/55/2 22/47/2
f 24/52/5 25/53/5 21/45/5
f 22/48/3 27/57/3 23/50/3
f 30/63/3 35/73/3 31/65/3
f 26/56/20 31/65/20 27/57/20
f 27/58/21 32/67/21 28/59/21
f 25/54/22 30/64/22 26/55/22
f 35/74/1 40/83/1 36/75/1
f 31/66/4 36/75/4 32/67/4
f 29/62/2 34/71/2 30/64/2
f 32/68/5 33/69/5 29/61/5
f 40/84/5 45/94/5 37/77/5
f 33/70/1 38/79/1 34/71/1
f 36/76/1 37/77/1 33/69/1
f 34/72/1 39/81/1 35/73/1
f 43/89/4 52/110/4 44/91/4
f 38/80/3 47/97/3 39/81/3
f 39/82/4 48/99/4 40/83/4
f 37/78/2 46/95/2 38/79/2
f 42/87/7 45/93/7 41/86/7
f 43/90/7 46/96/7 42/88/7
f 44/91/7 47/98/7 43/89/7
f 41/85/7 48/100/7 44/92/7
f 52/111/7 50/104/7 49/101/7
f 41/86/2 50/105/2 42/87/2
f 44/92/5 49/103/5 41/85/5
f 42/88/3 51/109/3 43/90/3
f 4/11/1 3/8/1 1/2/1
f 9/21/2 10/23/2 2/6/2
f 10/24/3 11/25/3 4/12/3
f 11/26/4 12/27/4 3/9/4
f 12/28/5 9/22/5 1/3/5
f 6/15/6 15/34/6 16/35/6
f 5/13/7 10/23/7 9/21/7
f 6/16/7 11/25/7 10/24/7
f 7/17/7 12/27/7 11/26/7
f 8/19/7 9/22/7 12/28/7
f 16/36/8 20/44/8 17/37/8
f 8/20/9 13/30/9 14/31/9
f 7/18/10 16/36/10 13/29/10
f 5/14/11 14/32/11 15/33/11
f 19/42/12 23/49/12 24/51/12
f 14/32/13 18/40/13 19/41/13
f 15/34/14 19/42/14 20/43/14
f 13/30/15 17/38/15 18/39/15
f 23/49/4 27/58/4 28/59/4
f 17/38/16 21/46/16 22/47/16
f 20/44/17 24/52/17 21/45/17
f 18/40/18 22/48/18 23/50/18
f 28/60/19 32/68/19 29/61/19
f 21/46/2 25/54/2 26/55/2
f 24/52/5 28/60/5 25/53/5
f 22/48/3 26/56/3 27/57/3
f 30/63/3 34/72/3 35/73/3
f 26/56/20 30/63/20 31/65/20
f 27/58/21 31/66/21 32/67/21
f 25/54/22 29/62/22 30/64/22
f 35/74/1 39/82/1 40/83/1
f 31/66/4 35/74/4 36/75/4
f 29/62/2 33/70/2 34/71/2
f 32/68/5 36/76/5 33/69/5
f 40/84/5 48/100/5 45/94/5
f 33/70/1 37/78/1 38/79/1
f 36/76/1 40/84/1 37/77/1
f 34/72/1 38/80/1 39/81/1
f 43/89/4 51/107/4 52/110/4
f 38/80/3 46/96/3 47/97/3
f 39/82/4 47/98/4 48/99/4
f 37/78/2 45/93/2 46/95/2
f 42/87/7 46/95/7 45/93/7
f 43/90/7 47/97/7 46/96/7
f 44/91/7 48/99/7 47/98/7
f 41/85/7 45/94/7 48/100/7
f 52/111/7 51/108/7 50/104/7
f 41/86/2 49/102/2 50/105/2
f 44/92/5 52/112/5 49/103/5
f 42/88/3 50/106/3 51/109/3
